<mxfile host="app.diagrams.net" modified="2024-05-02T20:24:22.370Z" agent="Mozilla/5.0 (Windows NT 10.0; Win64; x64) AppleWebKit/537.36 (KHTML, like Gecko) Chrome/124.0.0.0 Safari/537.36 Edg/124.0.0.0" etag="aJfA71_S66nzskk9IYI8" version="24.3.1" type="google">
  <diagram name="PÃ¡gina-1" id="XK8T2_OqMlhoL1aQ-22f">
    <mxGraphModel grid="1" page="1" gridSize="10" guides="1" tooltips="1" connect="1" arrows="1" fold="1" pageScale="1" pageWidth="827" pageHeight="1169" math="0" shadow="0">
      <root>
        <mxCell id="0" />
        <mxCell id="1" parent="0" />
        <mxCell id="cKBJrfFQ2p4AgQF2Fc1D-3" value="" style="edgeStyle=orthogonalEdgeStyle;rounded=0;orthogonalLoop=1;jettySize=auto;html=1;" edge="1" parent="1" source="cKBJrfFQ2p4AgQF2Fc1D-1" target="cKBJrfFQ2p4AgQF2Fc1D-2">
          <mxGeometry relative="1" as="geometry" />
        </mxCell>
        <mxCell id="cKBJrfFQ2p4AgQF2Fc1D-1" value="INICIO" style="ellipse;whiteSpace=wrap;html=1;" vertex="1" parent="1">
          <mxGeometry x="242" y="60" width="96" height="60" as="geometry" />
        </mxCell>
        <mxCell id="cKBJrfFQ2p4AgQF2Fc1D-5" value="" style="edgeStyle=orthogonalEdgeStyle;rounded=0;orthogonalLoop=1;jettySize=auto;html=1;" edge="1" parent="1" source="cKBJrfFQ2p4AgQF2Fc1D-2" target="cKBJrfFQ2p4AgQF2Fc1D-4">
          <mxGeometry relative="1" as="geometry" />
        </mxCell>
        <mxCell id="cKBJrfFQ2p4AgQF2Fc1D-2" value="Declarando A, B, C" style="whiteSpace=wrap;html=1;" vertex="1" parent="1">
          <mxGeometry x="230" y="150" width="120" height="60" as="geometry" />
        </mxCell>
        <mxCell id="cKBJrfFQ2p4AgQF2Fc1D-7" value="" style="edgeStyle=orthogonalEdgeStyle;rounded=0;orthogonalLoop=1;jettySize=auto;html=1;" edge="1" parent="1" source="cKBJrfFQ2p4AgQF2Fc1D-4" target="cKBJrfFQ2p4AgQF2Fc1D-6">
          <mxGeometry relative="1" as="geometry" />
        </mxCell>
        <mxCell id="cKBJrfFQ2p4AgQF2Fc1D-4" value="INPUT A, B, C" style="shape=parallelogram;perimeter=parallelogramPerimeter;whiteSpace=wrap;html=1;fixedSize=1;" vertex="1" parent="1">
          <mxGeometry x="230" y="240" width="120" height="60" as="geometry" />
        </mxCell>
        <mxCell id="cKBJrfFQ2p4AgQF2Fc1D-9" value="" style="edgeStyle=orthogonalEdgeStyle;rounded=0;orthogonalLoop=1;jettySize=auto;html=1;" edge="1" parent="1" source="cKBJrfFQ2p4AgQF2Fc1D-6" target="cKBJrfFQ2p4AgQF2Fc1D-8">
          <mxGeometry relative="1" as="geometry" />
        </mxCell>
        <mxCell id="cKBJrfFQ2p4AgQF2Fc1D-11" value="" style="edgeStyle=orthogonalEdgeStyle;rounded=0;orthogonalLoop=1;jettySize=auto;html=1;" edge="1" parent="1" source="cKBJrfFQ2p4AgQF2Fc1D-6" target="cKBJrfFQ2p4AgQF2Fc1D-10">
          <mxGeometry relative="1" as="geometry" />
        </mxCell>
        <mxCell id="cKBJrfFQ2p4AgQF2Fc1D-6" value="A==0 and&lt;div&gt;B==0&lt;/div&gt;" style="rhombus;whiteSpace=wrap;html=1;" vertex="1" parent="1">
          <mxGeometry x="239" y="330" width="102" height="90" as="geometry" />
        </mxCell>
        <mxCell id="cKBJrfFQ2p4AgQF2Fc1D-8" value="FIN" style="ellipse;whiteSpace=wrap;html=1;" vertex="1" parent="1">
          <mxGeometry x="372" y="337.5" width="70" height="75" as="geometry" />
        </mxCell>
        <mxCell id="cKBJrfFQ2p4AgQF2Fc1D-15" value="" style="edgeStyle=orthogonalEdgeStyle;rounded=0;orthogonalLoop=1;jettySize=auto;html=1;" edge="1" parent="1" source="cKBJrfFQ2p4AgQF2Fc1D-10">
          <mxGeometry relative="1" as="geometry">
            <mxPoint x="372" y="505" as="targetPoint" />
          </mxGeometry>
        </mxCell>
        <mxCell id="cKBJrfFQ2p4AgQF2Fc1D-17" value="" style="edgeStyle=orthogonalEdgeStyle;rounded=0;orthogonalLoop=1;jettySize=auto;html=1;" edge="1" parent="1" source="cKBJrfFQ2p4AgQF2Fc1D-10" target="cKBJrfFQ2p4AgQF2Fc1D-16">
          <mxGeometry relative="1" as="geometry" />
        </mxCell>
        <mxCell id="cKBJrfFQ2p4AgQF2Fc1D-10" value="A==0" style="rhombus;whiteSpace=wrap;html=1;" vertex="1" parent="1">
          <mxGeometry x="239" y="460" width="102" height="90" as="geometry" />
        </mxCell>
        <mxCell id="cKBJrfFQ2p4AgQF2Fc1D-68" value="" style="edgeStyle=orthogonalEdgeStyle;rounded=0;orthogonalLoop=1;jettySize=auto;html=1;" edge="1" parent="1" target="cKBJrfFQ2p4AgQF2Fc1D-67">
          <mxGeometry relative="1" as="geometry">
            <mxPoint x="472" y="505" as="sourcePoint" />
          </mxGeometry>
        </mxCell>
        <mxCell id="cKBJrfFQ2p4AgQF2Fc1D-23" value="" style="edgeStyle=orthogonalEdgeStyle;rounded=0;orthogonalLoop=1;jettySize=auto;html=1;" edge="1" parent="1" source="cKBJrfFQ2p4AgQF2Fc1D-16">
          <mxGeometry relative="1" as="geometry">
            <mxPoint x="382" y="655" as="targetPoint" />
          </mxGeometry>
        </mxCell>
        <mxCell id="cKBJrfFQ2p4AgQF2Fc1D-25" value="" style="edgeStyle=orthogonalEdgeStyle;rounded=0;orthogonalLoop=1;jettySize=auto;html=1;" edge="1" parent="1" source="cKBJrfFQ2p4AgQF2Fc1D-16" target="cKBJrfFQ2p4AgQF2Fc1D-24">
          <mxGeometry relative="1" as="geometry" />
        </mxCell>
        <mxCell id="cKBJrfFQ2p4AgQF2Fc1D-16" value="B==0" style="rhombus;whiteSpace=wrap;html=1;" vertex="1" parent="1">
          <mxGeometry x="239" y="610" width="102" height="90" as="geometry" />
        </mxCell>
        <mxCell id="cKBJrfFQ2p4AgQF2Fc1D-18" value="SI" style="text;html=1;align=center;verticalAlign=middle;resizable=0;points=[];autosize=1;strokeColor=none;fillColor=none;" vertex="1" parent="1">
          <mxGeometry x="327" y="338" width="30" height="30" as="geometry" />
        </mxCell>
        <mxCell id="cKBJrfFQ2p4AgQF2Fc1D-19" value="SI" style="text;html=1;align=center;verticalAlign=middle;resizable=0;points=[];autosize=1;strokeColor=none;fillColor=none;" vertex="1" parent="1">
          <mxGeometry x="327" y="458" width="30" height="30" as="geometry" />
        </mxCell>
        <mxCell id="cKBJrfFQ2p4AgQF2Fc1D-20" value="NO" style="text;html=1;align=center;verticalAlign=middle;resizable=0;points=[];autosize=1;strokeColor=none;fillColor=none;" vertex="1" parent="1">
          <mxGeometry x="302" y="408" width="40" height="30" as="geometry" />
        </mxCell>
        <mxCell id="cKBJrfFQ2p4AgQF2Fc1D-21" value="NO" style="text;html=1;align=center;verticalAlign=middle;resizable=0;points=[];autosize=1;strokeColor=none;fillColor=none;" vertex="1" parent="1">
          <mxGeometry x="302" y="548" width="40" height="30" as="geometry" />
        </mxCell>
        <mxCell id="cKBJrfFQ2p4AgQF2Fc1D-66" value="" style="edgeStyle=orthogonalEdgeStyle;rounded=0;orthogonalLoop=1;jettySize=auto;html=1;" edge="1" parent="1" target="cKBJrfFQ2p4AgQF2Fc1D-65">
          <mxGeometry relative="1" as="geometry">
            <mxPoint x="482" y="655" as="sourcePoint" />
          </mxGeometry>
        </mxCell>
        <mxCell id="cKBJrfFQ2p4AgQF2Fc1D-27" value="" style="edgeStyle=orthogonalEdgeStyle;rounded=0;orthogonalLoop=1;jettySize=auto;html=1;" edge="1" parent="1" source="cKBJrfFQ2p4AgQF2Fc1D-24" target="cKBJrfFQ2p4AgQF2Fc1D-26">
          <mxGeometry relative="1" as="geometry" />
        </mxCell>
        <mxCell id="cKBJrfFQ2p4AgQF2Fc1D-29" value="" style="edgeStyle=orthogonalEdgeStyle;rounded=0;orthogonalLoop=1;jettySize=auto;html=1;" edge="1" parent="1" source="cKBJrfFQ2p4AgQF2Fc1D-24" target="cKBJrfFQ2p4AgQF2Fc1D-28">
          <mxGeometry relative="1" as="geometry" />
        </mxCell>
        <mxCell id="cKBJrfFQ2p4AgQF2Fc1D-24" value="D &amp;lt; 0" style="rhombus;whiteSpace=wrap;html=1;" vertex="1" parent="1">
          <mxGeometry x="239" y="730" width="102" height="90" as="geometry" />
        </mxCell>
        <mxCell id="cKBJrfFQ2p4AgQF2Fc1D-26" value="FIN" style="ellipse;whiteSpace=wrap;html=1;" vertex="1" parent="1">
          <mxGeometry x="382" y="735" width="80" height="80" as="geometry" />
        </mxCell>
        <mxCell id="cKBJrfFQ2p4AgQF2Fc1D-31" value="" style="edgeStyle=orthogonalEdgeStyle;rounded=0;orthogonalLoop=1;jettySize=auto;html=1;" edge="1" parent="1" source="cKBJrfFQ2p4AgQF2Fc1D-28" target="cKBJrfFQ2p4AgQF2Fc1D-30">
          <mxGeometry relative="1" as="geometry" />
        </mxCell>
        <mxCell id="cKBJrfFQ2p4AgQF2Fc1D-44" value="" style="edgeStyle=orthogonalEdgeStyle;rounded=0;orthogonalLoop=1;jettySize=auto;html=1;" edge="1" parent="1" source="cKBJrfFQ2p4AgQF2Fc1D-28" target="cKBJrfFQ2p4AgQF2Fc1D-43">
          <mxGeometry relative="1" as="geometry" />
        </mxCell>
        <mxCell id="cKBJrfFQ2p4AgQF2Fc1D-28" value="D &amp;gt;= 0" style="rhombus;whiteSpace=wrap;html=1;" vertex="1" parent="1">
          <mxGeometry x="239" y="860" width="102" height="90" as="geometry" />
        </mxCell>
        <mxCell id="cKBJrfFQ2p4AgQF2Fc1D-30" value="FIN" style="ellipse;whiteSpace=wrap;html=1;" vertex="1" parent="1">
          <mxGeometry x="250" y="990" width="80" height="80" as="geometry" />
        </mxCell>
        <mxCell id="cKBJrfFQ2p4AgQF2Fc1D-46" value="" style="edgeStyle=orthogonalEdgeStyle;rounded=0;orthogonalLoop=1;jettySize=auto;html=1;" edge="1" parent="1" source="cKBJrfFQ2p4AgQF2Fc1D-43" target="cKBJrfFQ2p4AgQF2Fc1D-45">
          <mxGeometry relative="1" as="geometry" />
        </mxCell>
        <mxCell id="cKBJrfFQ2p4AgQF2Fc1D-43" value="x1= (-B+D^2) / (2*A)&lt;div&gt;x2=&amp;nbsp;&lt;span style=&quot;background-color: initial;&quot;&gt;(-B-D^2) / (2*A)&lt;/span&gt;&lt;/div&gt;" style="whiteSpace=wrap;html=1;" vertex="1" parent="1">
          <mxGeometry x="372" y="867.5" width="120" height="75" as="geometry" />
        </mxCell>
        <mxCell id="cKBJrfFQ2p4AgQF2Fc1D-50" value="" style="edgeStyle=orthogonalEdgeStyle;rounded=0;orthogonalLoop=1;jettySize=auto;html=1;" edge="1" parent="1" source="cKBJrfFQ2p4AgQF2Fc1D-45">
          <mxGeometry relative="1" as="geometry">
            <mxPoint x="502" y="1010" as="targetPoint" />
          </mxGeometry>
        </mxCell>
        <mxCell id="cKBJrfFQ2p4AgQF2Fc1D-52" value="" style="edgeStyle=orthogonalEdgeStyle;rounded=0;orthogonalLoop=1;jettySize=auto;html=1;" edge="1" parent="1" source="cKBJrfFQ2p4AgQF2Fc1D-45">
          <mxGeometry relative="1" as="geometry">
            <mxPoint x="432" y="1080" as="targetPoint" />
          </mxGeometry>
        </mxCell>
        <mxCell id="cKBJrfFQ2p4AgQF2Fc1D-45" value="x1==x2" style="rhombus;whiteSpace=wrap;html=1;" vertex="1" parent="1">
          <mxGeometry x="392" y="970" width="80" height="80" as="geometry" />
        </mxCell>
        <mxCell id="cKBJrfFQ2p4AgQF2Fc1D-48" value="SI" style="text;html=1;align=center;verticalAlign=middle;resizable=0;points=[];autosize=1;strokeColor=none;fillColor=none;" vertex="1" parent="1">
          <mxGeometry x="457" y="968" width="30" height="30" as="geometry" />
        </mxCell>
        <mxCell id="cKBJrfFQ2p4AgQF2Fc1D-62" value="" style="edgeStyle=orthogonalEdgeStyle;rounded=0;orthogonalLoop=1;jettySize=auto;html=1;exitX=0.942;exitY=0.383;exitDx=0;exitDy=0;exitPerimeter=0;" edge="1" parent="1" source="KxELy9D4PU14VBF7AoUL-4" target="cKBJrfFQ2p4AgQF2Fc1D-61">
          <mxGeometry relative="1" as="geometry">
            <mxPoint x="620" y="1003" as="sourcePoint" />
          </mxGeometry>
        </mxCell>
        <mxCell id="cKBJrfFQ2p4AgQF2Fc1D-64" value="" style="edgeStyle=orthogonalEdgeStyle;rounded=0;orthogonalLoop=1;jettySize=auto;html=1;" edge="1" parent="1" target="cKBJrfFQ2p4AgQF2Fc1D-63">
          <mxGeometry relative="1" as="geometry">
            <mxPoint x="477" y="1110" as="sourcePoint" />
          </mxGeometry>
        </mxCell>
        <mxCell id="cKBJrfFQ2p4AgQF2Fc1D-53" value="SI" style="text;html=1;align=center;verticalAlign=middle;resizable=0;points=[];autosize=1;strokeColor=none;fillColor=none;" vertex="1" parent="1">
          <mxGeometry x="327" y="610" width="30" height="30" as="geometry" />
        </mxCell>
        <mxCell id="cKBJrfFQ2p4AgQF2Fc1D-54" value="NO" style="text;html=1;align=center;verticalAlign=middle;resizable=0;points=[];autosize=1;strokeColor=none;fillColor=none;" vertex="1" parent="1">
          <mxGeometry x="300" y="687.5" width="40" height="30" as="geometry" />
        </mxCell>
        <mxCell id="cKBJrfFQ2p4AgQF2Fc1D-55" value="SI" style="text;html=1;align=center;verticalAlign=middle;resizable=0;points=[];autosize=1;strokeColor=none;fillColor=none;" vertex="1" parent="1">
          <mxGeometry x="337" y="778" width="30" height="30" as="geometry" />
        </mxCell>
        <mxCell id="cKBJrfFQ2p4AgQF2Fc1D-57" value="NO" style="text;html=1;align=center;verticalAlign=middle;resizable=0;points=[];autosize=1;strokeColor=none;fillColor=none;" vertex="1" parent="1">
          <mxGeometry x="292" y="818" width="40" height="30" as="geometry" />
        </mxCell>
        <mxCell id="cKBJrfFQ2p4AgQF2Fc1D-58" value="SI" style="text;html=1;align=center;verticalAlign=middle;resizable=0;points=[];autosize=1;strokeColor=none;fillColor=none;" vertex="1" parent="1">
          <mxGeometry x="327" y="918" width="30" height="30" as="geometry" />
        </mxCell>
        <mxCell id="cKBJrfFQ2p4AgQF2Fc1D-59" value="NO" style="text;html=1;align=center;verticalAlign=middle;resizable=0;points=[];autosize=1;strokeColor=none;fillColor=none;" vertex="1" parent="1">
          <mxGeometry x="291" y="950" width="40" height="30" as="geometry" />
        </mxCell>
        <mxCell id="cKBJrfFQ2p4AgQF2Fc1D-60" value="NO" style="text;html=1;align=center;verticalAlign=middle;resizable=0;points=[];autosize=1;strokeColor=none;fillColor=none;" vertex="1" parent="1">
          <mxGeometry x="442" y="1050" width="40" height="30" as="geometry" />
        </mxCell>
        <mxCell id="cKBJrfFQ2p4AgQF2Fc1D-61" value="FIN" style="ellipse;whiteSpace=wrap;html=1;" vertex="1" parent="1">
          <mxGeometry x="640" y="970" width="70" height="65" as="geometry" />
        </mxCell>
        <mxCell id="cKBJrfFQ2p4AgQF2Fc1D-63" value="FIN" style="ellipse;whiteSpace=wrap;html=1;" vertex="1" parent="1">
          <mxGeometry x="512" y="1075" width="70" height="70" as="geometry" />
        </mxCell>
        <mxCell id="cKBJrfFQ2p4AgQF2Fc1D-65" value="FIN" style="ellipse;whiteSpace=wrap;html=1;" vertex="1" parent="1">
          <mxGeometry x="522" y="622.5" width="60" height="65" as="geometry" />
        </mxCell>
        <mxCell id="cKBJrfFQ2p4AgQF2Fc1D-67" value="FIN" style="ellipse;whiteSpace=wrap;html=1;" vertex="1" parent="1">
          <mxGeometry x="502" y="465" width="80" height="80" as="geometry" />
        </mxCell>
        <mxCell id="KxELy9D4PU14VBF7AoUL-1" value="OUTPUT -C/B" style="shape=parallelogram;perimeter=parallelogramPerimeter;whiteSpace=wrap;html=1;fixedSize=1;" vertex="1" parent="1">
          <mxGeometry x="362" y="475" width="120" height="60" as="geometry" />
        </mxCell>
        <mxCell id="KxELy9D4PU14VBF7AoUL-2" value="OUTPUT (-C/A)^2" style="shape=parallelogram;perimeter=parallelogramPerimeter;whiteSpace=wrap;html=1;fixedSize=1;" vertex="1" parent="1">
          <mxGeometry x="372" y="625" width="128" height="60" as="geometry" />
        </mxCell>
        <mxCell id="KxELy9D4PU14VBF7AoUL-3" value="OUTPUT x1, x2" style="shape=parallelogram;perimeter=parallelogramPerimeter;whiteSpace=wrap;html=1;fixedSize=1;" vertex="1" parent="1">
          <mxGeometry x="372" y="1080" width="120" height="60" as="geometry" />
        </mxCell>
        <mxCell id="KxELy9D4PU14VBF7AoUL-4" value="OUTPUT x1" style="shape=parallelogram;perimeter=parallelogramPerimeter;whiteSpace=wrap;html=1;fixedSize=1;" vertex="1" parent="1">
          <mxGeometry x="490" y="980" width="120" height="60" as="geometry" />
        </mxCell>
      </root>
    </mxGraphModel>
  </diagram>
</mxfile>
